<svg xmlns="http://www.w3.org/2000/svg" xmlns:xlink="http://www.w3.org/1999/xlink" width="800" zoomAndPan="magnify" viewBox="0 0 600 599.999999" height="800" preserveAspectRatio="xMidYMid meet" version="1.0"><defs><g/><clipPath id="102435f56e"><path d="M 548.742188 312.042969 L 594.578125 312.042969 L 594.578125 357.878906 L 548.742188 357.878906 Z M 548.742188 312.042969 " clip-rule="nonzero"/></clipPath><clipPath id="99e888e093"><path d="M 571.660156 312.042969 C 559.003906 312.042969 548.742188 322.304688 548.742188 334.960938 C 548.742188 347.617188 559.003906 357.878906 571.660156 357.878906 C 584.320312 357.878906 594.578125 347.617188 594.578125 334.960938 C 594.578125 322.304688 584.320312 312.042969 571.660156 312.042969 Z M 571.660156 312.042969 " clip-rule="nonzero"/></clipPath><clipPath id="44b02224e7"><path d="M 0.742188 0.0429688 L 46.578125 0.0429688 L 46.578125 45.878906 L 0.742188 45.878906 Z M 0.742188 0.0429688 " clip-rule="nonzero"/></clipPath><clipPath id="92643d7aa6"><path d="M 23.660156 0.0429688 C 11.003906 0.0429688 0.742188 10.304688 0.742188 22.960938 C 0.742188 35.617188 11.003906 45.878906 23.660156 45.878906 C 36.320312 45.878906 46.578125 35.617188 46.578125 22.960938 C 46.578125 10.304688 36.320312 0.0429688 23.660156 0.0429688 Z M 23.660156 0.0429688 " clip-rule="nonzero"/></clipPath><clipPath id="e1e8a710de"><rect x="0" width="47" y="0" height="46"/></clipPath><clipPath id="3a2e20fc40"><path d="M 164.628906 193 L 308.628906 193 L 308.628906 357.75 L 164.628906 357.75 Z M 164.628906 193 " clip-rule="nonzero"/></clipPath><clipPath id="e751bc0c94"><rect x="0" width="151" y="0" height="277"/></clipPath><clipPath id="14b55aba2d"><rect x="0" width="69" y="0" height="275"/></clipPath><clipPath id="d7c7a518cb"><rect x="0" width="161" y="0" height="275"/></clipPath></defs><g clip-path="url(#102435f56e)"><g clip-path="url(#99e888e093)"><g transform="matrix(1, 0, 0, 1, 548, 312)"><g clip-path="url(#e1e8a710de)"><g clip-path="url(#44b02224e7)"><g clip-path="url(#92643d7aa6)"><path fill="#8c52ff" d="M 0.742188 0.0429688 L 46.578125 0.0429688 L 46.578125 45.878906 L 0.742188 45.878906 Z M 0.742188 0.0429688 " fill-opacity="1" fill-rule="nonzero"/></g></g></g></g></g></g><g clip-path="url(#3a2e20fc40)"><path fill="#000000" d="M 164.527344 208.742188 L 164.527344 255.128906 C 164.527344 266.558594 176.902344 273.699219 186.796875 267.984375 L 192.847656 264.492188 C 187.226562 250.746094 191.722656 234.765625 203.871094 226.027344 C 205.84375 224.605469 208.59375 225.050781 210.015625 227.019531 C 210.101562 227.140625 210.179688 227.265625 210.25 227.394531 L 210.261719 227.394531 C 211.394531 229.359375 210.855469 231.859375 209.011719 233.179688 C 199.269531 240.1875 196.269531 253.386719 202.425781 264.050781 C 208.585938 274.71875 221.523438 278.710938 232.46875 273.78125 C 234.566406 272.835938 237.042969 273.671875 238.144531 275.695312 C 238.199219 275.792969 238.246094 275.890625 238.292969 275.992188 C 239.292969 278.214844 238.296875 280.824219 236.078125 281.820312 C 222.4375 287.96875 206.34375 283.863281 197.253906 272.125 L 189.910156 276.363281 C 174.203125 285.4375 164.527344 302.199219 164.527344 320.335938 L 164.527344 357.507812 L 211.140625 357.507812 C 217.566406 357.507812 222.777344 352.300781 222.777344 345.875 L 222.777344 308.910156 L 238.3125 308.910156 C 252.617188 308.910156 264.949219 306.566406 275.3125 301.898438 C 285.824219 297.082031 293.921875 290.367188 299.613281 281.757812 C 305.304688 273.144531 308.15625 262.929688 308.15625 251.105469 C 308.15625 239.285156 305.304688 229.070312 299.613281 220.457031 C 293.921875 211.699219 285.824219 204.976562 275.3125 200.304688 C 264.949219 195.632812 252.617188 193.304688 238.3125 193.304688 L 179.96875 193.304688 C 171.441406 193.304688 164.527344 200.214844 164.527344 208.742188 Z M 253.847656 216.90625 C 259.683594 217.316406 265.207031 220.523438 268.367188 225.996094 C 273.417969 234.746094 270.445312 245.859375 261.695312 250.914062 L 257.546875 253.296875 L 252.148438 243.953125 C 251.566406 242.949219 250.300781 242.605469 249.292969 243.183594 C 248.285156 243.765625 247.945312 245.046875 248.523438 246.050781 L 253.921875 255.394531 L 248.503906 258.527344 L 243.105469 249.171875 C 242.523438 248.167969 241.253906 247.832031 240.25 248.414062 C 239.246094 248.992188 238.898438 250.261719 239.480469 251.265625 L 244.878906 260.609375 L 239.457031 263.742188 L 234.070312 254.398438 C 233.492188 253.394531 232.207031 253.050781 231.207031 253.628906 C 230.203125 254.210938 229.867188 255.492188 230.445312 256.496094 L 235.835938 265.835938 L 231.695312 268.222656 C 222.945312 273.273438 211.828125 270.300781 206.777344 261.550781 C 201.726562 252.800781 204.707031 241.683594 213.457031 236.632812 L 217.597656 234.246094 L 222.996094 243.589844 C 223.574219 244.59375 224.847656 244.941406 225.847656 244.359375 C 226.851562 243.78125 227.199219 242.5 226.617188 241.496094 L 221.21875 232.152344 L 226.640625 229.019531 L 232.039062 238.375 C 232.617188 239.378906 233.890625 239.710938 234.894531 239.132812 C 235.898438 238.554688 236.242188 237.285156 235.664062 236.277344 L 230.265625 226.933594 L 235.683594 223.804688 L 241.082031 233.144531 C 241.664062 234.148438 242.933594 234.496094 243.9375 233.914062 C 244.941406 233.335938 245.285156 232.054688 244.707031 231.050781 L 239.308594 221.707031 L 243.445312 219.3125 C 246.726562 217.417969 250.34375 216.664062 253.847656 216.90625 Z M 253.847656 216.90625 " fill-opacity="1" fill-rule="nonzero"/></g><g transform="matrix(1, 0, 0, 1, 6, 137)"><g clip-path="url(#e751bc0c94)"><g fill="#000000" fill-opacity="1"><g transform="translate(0.403881, 222.699336)"><g><path d="M 49.421875 -40.3125 L 119.5625 -40.3125 C 123.0625 -40.3125 125.679688 -40.195312 127.421875 -39.96875 C 129.171875 -39.738281 131.1875 -39.019531 133.46875 -37.8125 C 137.5625 -35.6875 139.609375 -29.765625 139.609375 -20.046875 C 139.609375 -9.410156 136.800781 -3.179688 131.1875 -1.359375 C 128.601562 -0.453125 124.65625 0 119.34375 0 L 29.15625 0 C 18.519531 0 12.289062 -2.882812 10.46875 -8.65625 C 9.5625 -11.082031 9.109375 -14.953125 9.109375 -20.265625 L 9.109375 -146.90625 C 9.109375 -154.644531 10.550781 -159.914062 13.4375 -162.71875 C 16.320312 -165.53125 21.785156 -166.9375 29.828125 -166.9375 L 119.5625 -166.9375 C 123.0625 -166.9375 125.679688 -166.820312 127.421875 -166.59375 C 129.171875 -166.363281 131.1875 -165.644531 133.46875 -164.4375 C 137.5625 -162.3125 139.609375 -156.390625 139.609375 -146.671875 C 139.609375 -136.046875 136.800781 -129.820312 131.1875 -128 C 128.601562 -127.082031 124.65625 -126.625 119.34375 -126.625 L 49.421875 -126.625 L 49.421875 -103.625 L 94.515625 -103.625 C 98.003906 -103.625 100.625 -103.507812 102.375 -103.28125 C 104.125 -103.050781 106.132812 -102.332031 108.40625 -101.125 C 112.507812 -99 114.5625 -93.078125 114.5625 -83.359375 C 114.5625 -72.722656 111.675781 -66.5 105.90625 -64.6875 C 103.320312 -63.769531 99.375 -63.3125 94.0625 -63.3125 L 49.421875 -63.3125 Z M 49.421875 -40.3125 "/></g></g></g></g></g><g transform="matrix(1, 0, 0, 1, 309, 136)"><g clip-path="url(#14b55aba2d)"><g fill="#000000" fill-opacity="1"><g transform="translate(3.937604, 217.322132)"><g><path d="M 9.109375 -146.90625 C 9.109375 -150.394531 9.222656 -153.007812 9.453125 -154.75 C 9.679688 -156.5 10.398438 -158.515625 11.609375 -160.796875 C 13.734375 -164.890625 19.65625 -166.9375 29.375 -166.9375 C 40.007812 -166.9375 46.3125 -164.128906 48.28125 -158.515625 C 49.039062 -155.929688 49.421875 -151.984375 49.421875 -146.671875 L 49.421875 -20.046875 C 49.421875 -16.398438 49.304688 -13.738281 49.078125 -12.0625 C 48.847656 -10.394531 48.128906 -8.425781 46.921875 -6.15625 C 44.796875 -2.050781 38.875 0 29.15625 0 C 18.519531 0 12.289062 -2.882812 10.46875 -8.65625 C 9.5625 -11.082031 9.109375 -14.953125 9.109375 -20.265625 Z M 9.109375 -146.90625 "/></g></g></g></g></g><g transform="matrix(1, 0, 0, 1, 378, 136)"><g clip-path="url(#d7c7a518cb)"><g fill="#000000" fill-opacity="1"><g transform="translate(0.412865, 217.322132)"><g><path d="M 113.421875 -43.734375 L 117.515625 -46.6875 C 122.679688 -49.726562 126.328125 -51.25 128.453125 -51.25 C 133.160156 -51.25 138.242188 -46.992188 143.703125 -38.484375 C 147.046875 -33.171875 148.71875 -28.921875 148.71875 -25.734375 C 148.71875 -22.546875 147.691406 -19.890625 145.640625 -17.765625 C 143.597656 -15.640625 141.207031 -13.738281 138.46875 -12.0625 C 135.738281 -10.394531 133.117188 -8.800781 130.609375 -7.28125 C 128.109375 -5.769531 122.984375 -3.796875 115.234375 -1.359375 C 107.492188 1.066406 100.015625 2.28125 92.796875 2.28125 C 85.585938 2.28125 78.300781 1.332031 70.9375 -0.5625 C 63.570312 -2.46875 55.976562 -5.660156 48.15625 -10.140625 C 40.34375 -14.617188 33.320312 -20.082031 27.09375 -26.53125 C 20.875 -32.988281 15.75 -41.265625 11.71875 -51.359375 C 7.695312 -61.453125 5.6875 -72.421875 5.6875 -84.265625 C 5.6875 -96.109375 7.660156 -106.847656 11.609375 -116.484375 C 15.554688 -126.128906 20.601562 -134.101562 26.75 -140.40625 C 32.90625 -146.707031 39.929688 -151.984375 47.828125 -156.234375 C 62.703125 -164.429688 77.65625 -168.53125 92.6875 -168.53125 C 99.832031 -168.53125 107.082031 -167.429688 114.4375 -165.234375 C 121.800781 -163.035156 127.382812 -160.796875 131.1875 -158.515625 L 136.65625 -155.328125 C 139.382812 -153.648438 141.507812 -152.28125 143.03125 -151.21875 C 146.976562 -148.03125 148.953125 -144.425781 148.953125 -140.40625 C 148.953125 -136.382812 147.359375 -132.171875 144.171875 -127.765625 C 138.242188 -119.566406 132.925781 -115.46875 128.21875 -115.46875 C 125.488281 -115.46875 121.617188 -117.140625 116.609375 -120.484375 C 110.234375 -125.640625 101.726562 -128.21875 91.09375 -128.21875 C 81.226562 -128.21875 71.515625 -124.800781 61.953125 -117.96875 C 57.390625 -114.632812 53.585938 -109.929688 50.546875 -103.859375 C 47.515625 -97.785156 46 -90.910156 46 -83.234375 C 46 -75.566406 47.515625 -68.695312 50.546875 -62.625 C 53.585938 -56.550781 57.460938 -51.769531 62.171875 -48.28125 C 71.429688 -41.601562 81.070312 -38.265625 91.09375 -38.265625 C 95.800781 -38.265625 100.242188 -38.867188 104.421875 -40.078125 C 108.597656 -41.296875 111.597656 -42.515625 113.421875 -43.734375 Z M 113.421875 -43.734375 "/></g></g></g></g></g></svg>